<?xml version="1.0" standalone="no"?>
<!DOCTYPE svg PUBLIC "-//W3C//DTD SVG 20010904//EN"
 "http://www.w3.org/TR/2001/REC-SVG-20010904/DTD/svg10.dtd">
<svg version="1.0" xmlns="http://www.w3.org/2000/svg"
 width="388.000000pt" height="388.000000pt" viewBox="0 0 388.000000 388.000000"
 preserveAspectRatio="xMidYMid meet">
<metadata>
Created by potrace 1.14, written by Peter Selinger 2001-2017
</metadata>
<g transform="translate(0.000000,388.000000) scale(0.100000,-0.100000)"
fill="#000000" stroke="none">
<path d="M1558 2419 c-51 -38 -46 -130 8 -160 46 -24 93 -17 125 19 16 18 29
43 29 57 0 85 -95 134 -162 84z m117 -24 c34 -33 33 -78 -1 -110 -43 -40 -101
-30 -127 23 -40 80 65 151 128 87z"/>
<path d="M1595 2391 c-17 -5 -20 -14 -19 -48 2 -67 3 -70 13 -54 5 8 7 20 4
28 -8 21 17 15 37 -9 10 -13 22 -20 26 -15 4 4 0 15 -9 24 -14 15 -14 18 -1
27 32 24 -7 59 -51 47z m43 -28 c2 -8 -6 -13 -22 -13 -25 0 -33 10 -19 24 10
10 36 3 41 -11z"/>
<path d="M620 2400 c-25 -5 -65 -11 -89 -15 -25 -3 -81 -18 -125 -32 -180 -56
-310 -152 -369 -272 -29 -60 -32 -75 -32 -156 0 -82 3 -97 33 -157 79 -162
293 -280 572 -317 76 -10 390 -7 445 4 253 51 409 130 500 253 94 127 94 314
0 442 -34 46 -41 53 -110 106 -53 41 -192 98 -285 118 -41 9 -88 19 -105 22
-45 9 -384 12 -435 4z m545 -154 c17 -3 41 -8 54 -11 79 -15 176 -62 231 -111
38 -35 96 -137 86 -153 -3 -4 -168 -8 -366 -10 l-361 -2 -124 91 c-140 102
-217 142 -286 146 -117 6 -196 -92 -177 -220 3 -18 -3 -20 -60 -21 -35 0 -65
2 -66 5 -2 3 16 21 40 40 25 21 45 47 49 65 18 76 69 134 139 158 47 16 90 13
161 -11 28 -9 53 -15 56 -15 57 15 226 45 281 49 40 4 74 7 76 9 6 5 239 -3
267 -9z m-521 -261 c20 -9 36 -19 36 -23 0 -4 -39 -6 -88 -5 -126 2 -117 0
-101 19 28 34 85 37 153 9z m886 -97 c0 -4 -22 -25 -49 -48 -40 -34 -49 -48
-54 -82 -12 -92 -103 -168 -200 -168 -29 0 -75 10 -114 26 -59 24 -70 25 -122
15 -56 -10 -74 -13 -166 -27 -61 -9 -294 -10 -350 -2 -124 19 -235 66 -299
126 -35 34 -86 121 -86 148 0 9 96 12 345 13 l346 2 47 -35 c26 -19 81 -62
122 -96 89 -72 197 -128 261 -133 101 -10 183 65 182 164 -1 27 -8 60 -17 74
-14 22 -14 24 1 27 34 6 153 4 153 -4z m-422 -23 c-23 -19 -36 -23 -72 -19
-24 2 -64 13 -88 23 l-43 20 115 0 115 0 -27 -24z"/>
<path d="M2673 2189 c-12 -4 -29 -22 -38 -39 -45 -87 -32 -247 23 -291 32 -24
53 -24 85 2 33 25 49 84 48 172 -2 121 -48 183 -118 156z m62 -59 c16 -30 22
-150 11 -199 -9 -38 -35 -62 -56 -51 -61 32 -52 280 9 280 13 0 27 -12 36 -30z"/>
<path d="M2817 2192 c-9 -2 -17 -10 -17 -18 0 -13 18 -19 48 -15 13 2 13 -1
15 -187 2 -117 3 -123 22 -120 18 3 19 11 20 153 l0 150 25 0 c18 0 25 6 25
19 0 17 -8 20 -61 20 -33 1 -68 0 -77 -2z"/>
<path d="M3015 2191 c-19 -6 -20 -14 -18 -151 2 -202 1 -190 21 -190 16 0 18
9 17 71 -1 38 3 73 7 76 5 2 19 -2 31 -10 16 -10 25 -31 32 -73 8 -49 14 -60
32 -62 20 -3 21 -1 13 28 -5 17 -9 34 -9 38 -4 37 -16 73 -27 83 -13 10 -12
15 6 34 31 33 34 99 7 129 -23 25 -77 38 -112 27z m84 -54 c15 -28 7 -78 -16
-94 -19 -14 -42 -17 -44 -5 -4 26 -5 108 -2 115 9 16 50 6 62 -16z"/>
<path d="M3231 2180 c-33 -24 -50 -91 -47 -172 5 -90 26 -142 63 -156 78 -26
124 52 117 196 -6 125 -65 184 -133 132z m84 -73 c27 -93 3 -227 -40 -227 -32
0 -50 50 -50 140 0 99 15 140 51 140 20 0 26 -9 39 -53z"/>
<path d="M3410 2025 c0 -164 1 -175 19 -175 17 0 18 9 16 130 -1 72 -1 129 0
128 2 -2 24 -60 50 -130 38 -104 51 -128 66 -128 19 0 20 7 17 173 -3 145 -5
172 -18 172 -13 0 -15 -22 -14 -138 l1 -138 -19 53 c-10 29 -28 80 -40 113
-31 90 -46 114 -70 115 -5 0 -8 -79 -8 -175z"/>
<path d="M3637 2193 c-2 -5 -3 -82 -3 -173 1 -156 2 -165 21 -165 18 0 19 8
18 140 -2 207 -1 205 -17 205 -8 0 -17 -3 -19 -7z"/>
<path d="M3771 2174 c-72 -60 -69 -260 4 -308 25 -17 90 -22 99 -8 9 15 -9 30
-37 30 -42 -1 -66 30 -74 89 -13 114 23 198 81 187 21 -3 26 0 26 16 0 31 -60
27 -99 -6z"/>
<path d="M1904 2178 c-4 -6 -7 -26 -6 -45 0 -18 1 -91 1 -163 1 -120 2 -130
20 -130 16 0 18 8 17 71 0 39 1 74 4 79 3 4 15 4 26 -1 22 -8 37 -42 49 -111
4 -29 11 -38 26 -38 15 0 19 5 15 18 -3 9 -8 33 -11 52 -9 54 -17 74 -34 87
-14 11 -14 14 6 28 46 33 38 130 -13 154 -33 14 -91 14 -100 -1z m84 -34 c29
-20 29 -65 -1 -99 -43 -50 -58 -17 -48 103 1 17 22 15 49 -4z"/>
<path d="M2149 2173 c0 -10 -2 -25 -4 -33 -13 -59 -36 -165 -40 -192 -3 -18
-10 -47 -14 -65 -9 -33 -6 -43 14 -43 13 0 37 78 29 92 -6 9 -3 10 43 14 31 2
33 0 43 -39 16 -61 18 -67 29 -67 20 0 19 20 -10 151 -35 158 -37 170 -38 187
-1 20 -51 15 -52 -5z m37 -94 c4 -24 10 -54 15 -65 10 -27 3 -34 -31 -34 l-26
0 14 75 c8 41 17 74 19 72 2 -2 6 -24 9 -48z"/>
<path d="M2312 2018 l3 -171 28 -4 c15 -2 44 4 64 13 51 25 75 82 72 174 -3
113 -39 159 -122 160 l-47 0 2 -172z m83 136 c25 -10 45 -70 45 -135 0 -67
-10 -99 -40 -127 -43 -40 -50 -22 -50 129 0 146 1 149 45 133z"/>
<path d="M2525 2021 c0 -151 2 -170 17 -174 9 -3 18 0 20 7 2 6 3 83 3 171 -1
151 -3 160 -21 163 -19 3 -20 -4 -19 -167z"/>
<path d="M2420 1765 c-10 -13 -10 -19 4 -33 24 -27 21 -45 -6 -37 -18 5 -20 4
-8 -4 37 -26 62 7 30 39 -24 24 -26 34 -5 26 8 -3 15 -1 15 4 0 17 -18 20 -30
5z"/>
<path d="M2709 1759 c-23 -23 -24 -42 -3 -63 22 -23 74 -18 74 7 0 7 -4 7 -12
-1 -32 -32 -80 7 -54 43 10 14 20 16 42 11 23 -6 27 -5 17 5 -20 20 -43 19
-64 -2z"/>
<path d="M2841 1770 c-7 -4 -11 -23 -9 -46 3 -35 6 -39 33 -41 28 -2 28 -1 5
5 -28 9 -34 38 -7 36 9 -1 17 2 17 7 0 5 -9 9 -20 9 -11 0 -20 5 -20 10 0 6
12 10 27 10 14 0 23 3 19 7 -10 10 -32 12 -45 3z"/>
<path d="M3104 1758 c-4 -14 -1 -25 9 -33 11 -8 13 -15 5 -29 -8 -14 -8 -17 2
-11 21 13 40 68 28 83 -16 19 -36 14 -44 -10z m36 -14 c0 -16 -16 -19 -25 -4
-8 13 4 32 16 25 5 -4 9 -13 9 -21z"/>
<path d="M3210 1765 c-14 -17 0 -21 17 -4 8 8 13 8 17 0 4 -6 -4 -15 -18 -21
-29 -11 -35 -44 -11 -54 32 -12 46 4 41 48 -3 22 -5 42 -5 44 -3 8 -31 0 -41
-13z m40 -49 c0 -17 -27 -29 -35 -16 -4 6 -3 15 0 20 9 15 35 12 35 -4z"/>
<path d="M3324 1772 c-17 -11 -23 -71 -8 -83 16 -13 58 7 48 23 -4 6 -7 22 -8
36 -1 27 -14 36 -32 24z m26 -23 c0 -5 -7 -9 -15 -9 -15 0 -20 12 -9 23 8 8
24 -1 24 -14z m-5 -37 c0 -18 -20 -15 -23 4 -3 10 1 15 10 12 7 -3 13 -10 13
-16z"/>
<path d="M2572 1725 c1 -45 1 -46 7 -16 l6 35 28 -33 c15 -18 27 -31 28 -29 5
18 3 81 -3 84 -4 3 -8 -9 -8 -26 l0 -30 -30 32 -29 33 1 -50z"/>
<path d="M3019 1723 c5 -47 5 -48 11 -13 6 36 3 60 -9 60 -3 0 -4 -21 -2 -47z"/>
<path d="M2505 1718 c8 -46 15 -48 15 -5 0 21 -5 37 -10 37 -6 0 -8 -13 -5
-32z"/>
</g>
</svg>
